# xmcd CD database file
#
# Track frame offsets:
#	150
#	17122
#	42800
#	75187
#	104070
#	126612
#
# Disc length: 2090 seconds
#
# Revision: 2
# Processed by: cddbd v1.4b41PL1 Copyright (c) Steve Scherf et al.
# Submitted via: Feurio! 1.52 - http://www.feurio.com
#
DISCID=47082806
DTITLE=Praga Khan - Lonely
DYEAR=1900
DGENRE=
TTITLE0=Lonely (7inch Mix)
TTITLE1=Lonely (Talla 2XLC Remix)
TTITLE2=Lonely (Phuzz Mix)
TTITLE3=Lonely Greasy Bass Mix)
TTITLE4=Lonely (Court Circuit Remix)
TTITLE5=Lonely (Mosphit Terror)
EXTD=
EXTT0=
EXTT1=
EXTT2=
EXTT3=
EXTT4=
EXTT5=
PLAYORDER=
